<svg width="172" height="58" viewBox="0 0 172 58" fill="none" xmlns="http://www.w3.org/2000/svg">
<path d="M2.70312 40.1758C2.57552 37.7513 2.36589 35.5182 2.07422 33.4766C1.80078 31.4167 1.50911 29.6211 1.19922 28.0898C0.907552 26.5586 0.643229 25.319 0.40625 24.3711C0.1875 23.4232 0.078125 22.8307 0.078125 22.5938C0.078125 22.2474 0.205729 21.9102 0.460938 21.582C0.734375 21.2539 1.07161 20.9714 1.47266 20.7344C1.8737 20.4792 2.30208 20.2786 2.75781 20.1328C3.23177 19.987 3.66016 19.9141 4.04297 19.9141C4.35286 19.9141 4.61719 19.9688 4.83594 20.0781C5.07292 20.1875 5.23698 20.3698 5.32812 20.625C5.41927 20.9349 5.5013 21.263 5.57422 21.6094C5.66536 21.9375 5.75651 22.3385 5.84766 22.8125C5.95703 23.487 6.10286 23.8242 6.28516 23.8242C6.48568 23.8242 6.71354 23.5234 6.96875 22.9219C7.33333 22.0833 7.72526 21.3906 8.14453 20.8438C8.5638 20.2969 9.01042 19.8685 9.48438 19.5586C9.97656 19.2305 10.4779 19.0026 10.9883 18.875C11.5169 18.7474 12.0638 18.6836 12.6289 18.6836C14.3424 18.6836 15.7917 19.3581 16.9766 20.707C18.1797 22.056 19.1185 24.0065 19.793 26.5586C19.8841 26.8503 19.9661 27.0417 20.0391 27.1328C20.112 27.2057 20.194 27.2422 20.2852 27.2422C20.3763 27.2422 20.4674 27.2057 20.5586 27.1328C20.668 27.0417 20.7682 26.8685 20.8594 26.6133C21.2969 25.4284 21.8073 24.4258 22.3906 23.6055C22.974 22.7669 23.5755 22.0924 24.1953 21.582C24.8333 21.0534 25.4805 20.6706 26.1367 20.4336C26.793 20.1966 27.4219 20.0781 28.0234 20.0781C29.1354 20.0781 30.138 20.4883 31.0312 21.3086C31.9427 22.1107 32.7448 23.3594 33.4375 25.0547C34.1484 26.7318 34.7591 28.8646 35.2695 31.4531C35.7982 34.0234 36.2357 37.0768 36.582 40.6133C36.582 41.5977 36.2812 42.2812 35.6797 42.6641C35.0781 43.0651 34.2578 43.2656 33.2188 43.2656C32.5443 43.2656 32.0156 43.1198 31.6328 42.8281C31.25 42.5365 31.0312 42.1536 30.9766 41.6797C30.7396 39.1458 30.4753 36.8945 30.1836 34.9258C29.9102 32.9388 29.6094 31.2708 29.2812 29.9219C28.9531 28.5547 28.5885 27.5156 28.1875 26.8047C27.8047 26.0938 27.3763 25.7383 26.9023 25.7383C26.6654 25.7383 26.3646 25.9115 26 26.2578C25.6536 26.6042 25.2799 27.2422 24.8789 28.1719C24.4779 29.0833 24.0586 30.3411 23.6211 31.9453C23.1836 33.5312 22.7643 35.5638 22.3633 38.043C22.2539 38.7357 21.9167 39.2643 21.3516 39.6289C20.8047 39.9935 20.1302 40.1758 19.3281 40.1758C18.3984 40.1758 17.7513 40.0299 17.3867 39.7383C17.0404 39.4466 16.849 38.9544 16.8125 38.2617C16.7396 37.0586 16.612 35.8646 16.4297 34.6797C16.2656 33.4766 16.056 32.3372 15.8008 31.2617C15.5456 30.168 15.263 29.1654 14.9531 28.2539C14.6432 27.3242 14.3151 26.5221 13.9688 25.8477C13.6224 25.1549 13.2669 24.6172 12.9023 24.2344C12.5378 23.8516 12.1823 23.6602 11.8359 23.6602C11.3802 23.6602 10.9336 23.9792 10.4961 24.6172C10.0768 25.2552 9.69401 26.1576 9.34766 27.3242C9.01953 28.4909 8.75521 29.8945 8.55469 31.5352C8.35417 33.1758 8.25391 35.0078 8.25391 37.0312C8.25391 37.3776 8.26302 37.724 8.28125 38.0703C8.29948 38.3984 8.30859 38.7448 8.30859 39.1094C8.30859 39.6562 8.21745 40.1029 8.03516 40.4492C7.87109 40.7956 7.625 41.069 7.29688 41.2695C6.98698 41.4701 6.6224 41.6068 6.20312 41.6797C5.78385 41.7526 5.32812 41.7891 4.83594 41.7891C4.38021 41.7891 4.01562 41.7526 3.74219 41.6797C3.46875 41.625 3.25911 41.5339 3.11328 41.4062C2.96745 41.2786 2.86719 41.1055 2.8125 40.8867C2.75781 40.6862 2.72135 40.4492 2.70312 40.1758ZM51.4297 39.7383C50.3359 39.7383 49.2422 39.474 48.1484 38.9453C47.0547 38.3984 46.0065 37.6602 45.0039 36.7305C44.0013 35.8008 43.0716 34.707 42.2148 33.4492C41.3581 32.1732 40.6107 30.806 39.9727 29.3477C39.3346 27.8711 38.8333 26.3307 38.4688 24.7266C38.1042 23.1224 37.9219 21.5182 37.9219 19.9141C37.9219 18.6745 38.1771 17.7904 38.6875 17.2617C39.1979 16.7148 40.0273 16.4414 41.1758 16.4414C42.6159 16.4414 43.418 17.0339 43.582 18.2188C43.9102 20.7344 44.3659 23.0039 44.9492 25.0273C45.5326 27.0508 46.2161 28.7734 47 30.1953C47.8021 31.6172 48.6862 32.7109 49.6523 33.4766C50.6367 34.2422 51.6758 34.625 52.7695 34.625C53.5534 34.625 54.2917 34.4336 54.9844 34.0508C55.6771 33.6497 56.2786 33.0938 56.7891 32.3828C56.9714 32.1094 57.0898 31.8451 57.1445 31.5898C57.2174 31.3346 57.2721 31.043 57.3086 30.7148C57.3997 29.4206 57.5 28.1536 57.6094 26.9141C57.737 25.6562 57.8555 24.3984 57.9648 23.1406C58.0013 22.5938 58.0742 22.1471 58.1836 21.8008C58.293 21.4544 58.457 21.181 58.6758 20.9805C58.8945 20.7799 59.1771 20.6432 59.5234 20.5703C59.888 20.4974 60.3438 20.4609 60.8906 20.4609C61.5104 20.4609 62.0391 20.5521 62.4766 20.7344C62.9141 20.8984 63.2695 21.181 63.543 21.582C63.8164 21.9648 64.0078 22.4753 64.1172 23.1133C64.2448 23.7331 64.3086 24.5078 64.3086 25.4375C64.3086 26.2396 64.2448 26.9414 64.1172 27.543C64.0078 28.1263 63.8711 28.6823 63.707 29.2109C63.5612 29.7214 63.4154 30.2318 63.2695 30.7422C63.1419 31.2344 63.0599 31.7812 63.0234 32.3828C62.9323 33.8958 62.8503 35.2083 62.7773 36.3203C62.7044 37.4141 62.6406 38.3529 62.5859 39.1367C62.5495 39.9206 62.513 40.5951 62.4766 41.1602C62.4583 41.7253 62.4401 42.2266 62.4219 42.6641C62.4036 43.1198 62.3945 43.5482 62.3945 43.9492C62.3945 44.3503 62.3945 44.7878 62.3945 45.2617C62.3945 46.1185 62.431 47.0482 62.5039 48.0508C62.5768 49.0716 62.6497 50.0469 62.7227 50.9766C62.8138 51.9062 62.8958 52.7266 62.9688 53.4375C63.0417 54.1484 63.0781 54.6406 63.0781 54.9141C63.0781 55.2604 62.9688 55.5885 62.75 55.8984C62.5312 56.2083 62.2396 56.4818 61.875 56.7188C61.5104 56.9557 61.082 57.138 60.5898 57.2656C60.0977 57.4115 59.5781 57.4844 59.0312 57.4844C58.5573 57.4844 58.1745 57.3203 57.8828 56.9922C57.6094 56.6823 57.4544 56.263 57.418 55.7344C57.3633 55.0417 57.3177 54.194 57.2812 53.1914C57.2448 52.207 57.2083 51.1497 57.1719 50.0195C57.1354 48.9076 57.1081 47.7682 57.0898 46.6016C57.0898 45.4531 57.0807 44.3776 57.0625 43.375C57.0443 42.3906 57.0352 41.5247 57.0352 40.7773C57.0352 40.0299 57.0352 39.4922 57.0352 39.1641C57.0352 38.8359 56.9987 38.6081 56.9258 38.4805C56.8529 38.3346 56.7161 38.2617 56.5156 38.2617C56.4062 38.2617 56.2604 38.2982 56.0781 38.3711C55.8958 38.4258 55.6862 38.526 55.4492 38.6719C54.8112 39.0547 54.1641 39.3281 53.5078 39.4922C52.8516 39.6562 52.1589 39.7383 51.4297 39.7383ZM78.5547 23.9336C78.1354 23.8971 77.7982 23.6237 77.543 23.1133C77.2878 22.6029 77.1602 22.0378 77.1602 21.418C77.1602 21.1263 77.1875 20.8438 77.2422 20.5703C77.2786 20.2786 77.3516 20.0234 77.4609 19.8047C77.5703 19.5859 77.707 19.4128 77.8711 19.2852C78.0352 19.1393 78.2266 19.0664 78.4453 19.0664C79.1198 19.0664 79.8945 19.0482 80.7695 19.0117C81.6445 18.957 82.5833 18.9023 83.5859 18.8477C84.0964 18.793 84.3789 18.4922 84.4336 17.9453C84.5977 15.3021 84.8255 13.0234 85.1172 11.1094C85.4089 9.19531 85.7643 7.58203 86.1836 6.26953C86.6029 4.9388 87.0768 3.86328 87.6055 3.04297C88.1523 2.22266 88.7539 1.59375 89.4102 1.15625C89.6107 1.01042 89.8477 0.864583 90.1211 0.71875C90.3945 0.554688 90.6497 0.472656 90.8867 0.472656C91.3424 0.472656 91.8164 0.591146 92.3086 0.828125C92.819 1.04688 93.2839 1.33854 93.7031 1.70312C94.1406 2.04948 94.4961 2.45052 94.7695 2.90625C95.043 3.34375 95.1797 3.78125 95.1797 4.21875C95.1797 4.38281 95.1432 4.51953 95.0703 4.62891C94.9974 4.72005 94.9062 4.8112 94.7969 4.90234C94.0859 5.43099 93.457 6.02344 92.9102 6.67969C92.3633 7.33594 91.8984 8.13802 91.5156 9.08594C91.1328 10.0339 90.8138 11.1732 90.5586 12.5039C90.3034 13.8346 90.112 15.4388 89.9844 17.3164C89.9844 17.6081 90.0299 17.8268 90.1211 17.9727C90.2305 18.1003 90.4219 18.1641 90.6953 18.1641C91.1693 18.1641 91.7344 18.1276 92.3906 18.0547C93.0651 17.9635 93.776 17.8633 94.5234 17.7539C95.2708 17.6263 96.0273 17.4987 96.793 17.3711C97.5586 17.2253 98.2786 17.0977 98.9531 16.9883C99.6458 16.8607 100.266 16.7604 100.812 16.6875C101.359 16.5964 101.779 16.5508 102.07 16.5508C102.654 16.5508 103.128 16.7513 103.492 17.1523C103.857 17.5534 104.039 18.1549 104.039 18.957C104.112 19.7409 104.185 20.625 104.258 21.6094C104.349 22.5938 104.431 23.6419 104.504 24.7539C104.595 25.8477 104.668 26.987 104.723 28.1719C104.796 29.3385 104.859 30.4961 104.914 31.6445C104.969 32.7747 105.014 33.8685 105.051 34.9258C105.087 35.9831 105.105 36.9492 105.105 37.8242C105.105 38.7357 104.777 39.4193 104.121 39.875C103.483 40.3307 102.535 40.5586 101.277 40.5586C100.712 40.5586 100.275 40.4219 99.9648 40.1484C99.6549 39.8932 99.5 39.5104 99.5 39C99.5 35.7552 99.3997 32.8021 99.1992 30.1406C98.9987 27.4792 98.8164 25.2461 98.6523 23.4414C98.5977 22.5846 98.1693 22.1562 97.3672 22.1562L90.5312 22.9219C90.1484 22.9766 89.9115 23.1315 89.8203 23.3867C89.7474 23.6419 89.7109 23.9974 89.7109 24.4531C89.7109 28.4818 89.8112 31.9453 90.0117 34.8438C90.2122 37.7422 90.431 40.1758 90.668 42.1445C90.9232 44.1315 91.151 45.6901 91.3516 46.8203C91.5521 47.9688 91.6523 48.7982 91.6523 49.3086C91.6523 49.6914 91.4974 50.0378 91.1875 50.3477C90.8958 50.6576 90.513 50.9219 90.0391 51.1406C89.5833 51.3594 89.082 51.5234 88.5352 51.6328C87.9883 51.7604 87.4779 51.8242 87.0039 51.8242C86.5482 51.8242 86.138 51.7422 85.7734 51.5781C85.4271 51.4323 85.2266 51.1771 85.1719 50.8125C84.9896 49.5365 84.8346 48.1328 84.707 46.6016C84.5794 45.0885 84.4701 43.4023 84.3789 41.543C84.306 39.7018 84.2513 37.6875 84.2148 35.5C84.1784 33.2943 84.1602 30.8789 84.1602 28.2539C84.1602 27.5794 84.1602 26.9232 84.1602 26.2852C84.1602 25.6471 84.1784 25.0091 84.2148 24.3711C84.2148 23.8242 83.9141 23.5508 83.3125 23.5508L78.5547 23.9336ZM102.125 11.1094C101.596 11.1094 101.095 11.0365 100.621 10.8906C100.165 10.7266 99.7643 10.5078 99.418 10.2344C99.0716 9.94271 98.7982 9.60547 98.5977 9.22266C98.4154 8.83984 98.3242 8.42057 98.3242 7.96484C98.3242 7.19922 98.625 6.57943 99.2266 6.10547C99.8464 5.63151 100.667 5.39453 101.688 5.39453C102.161 5.39453 102.617 5.48568 103.055 5.66797C103.492 5.83203 103.875 6.0599 104.203 6.35156C104.549 6.64323 104.823 6.98958 105.023 7.39062C105.224 7.77344 105.324 8.17448 105.324 8.59375C105.324 9.3776 105.033 9.9974 104.449 10.4531C103.884 10.8906 103.109 11.1094 102.125 11.1094ZM108.715 7.85547C108.715 6.90755 108.988 6.23307 109.535 5.83203C110.082 5.43099 110.984 5.23047 112.242 5.23047C112.68 5.23047 113.062 5.27604 113.391 5.36719C113.719 5.45833 113.992 5.61328 114.211 5.83203C114.43 6.03255 114.603 6.3151 114.73 6.67969C114.876 7.02604 114.995 7.47266 115.086 8.01953C115.323 9.64193 115.56 11.3464 115.797 13.1328C116.052 14.901 116.289 16.6693 116.508 18.4375C116.745 20.1875 116.964 21.901 117.164 23.5781C117.365 25.237 117.538 26.7865 117.684 28.2266C117.848 29.6484 117.966 30.9154 118.039 32.0273C118.13 33.1211 118.176 33.987 118.176 34.625C118.176 35.2812 118.112 35.8372 117.984 36.293C117.875 36.7487 117.674 37.1133 117.383 37.3867C117.109 37.6602 116.745 37.8607 116.289 37.9883C115.852 38.0977 115.305 38.1523 114.648 38.1523C114.01 38.1523 113.5 37.9883 113.117 37.6602C112.753 37.332 112.57 36.8307 112.57 36.1562C112.57 35.4635 112.516 34.543 112.406 33.3945C112.297 32.2279 112.151 30.9336 111.969 29.5117C111.786 28.0898 111.577 26.5768 111.34 24.9727C111.121 23.3685 110.884 21.7826 110.629 20.2148C110.392 18.6471 110.155 17.1432 109.918 15.7031C109.699 14.2448 109.499 12.9596 109.316 11.8477C109.134 10.7174 108.988 9.79688 108.879 9.08594C108.77 8.35677 108.715 7.94661 108.715 7.85547ZM145.82 33.0117C146.349 32.556 146.868 32.3281 147.379 32.3281C147.671 32.3281 147.935 32.401 148.172 32.5469C148.409 32.6927 148.673 32.9206 148.965 33.2305C149.238 33.6497 149.43 33.9961 149.539 34.2695C149.667 34.5247 149.73 34.7799 149.73 35.0352C149.73 35.582 149.457 36.1016 148.91 36.5938C148.035 37.3229 147.087 37.9792 146.066 38.5625C145.046 39.1276 143.979 39.6107 142.867 40.0117C141.755 40.4128 140.607 40.7135 139.422 40.9141C138.237 41.1328 137.061 41.2422 135.895 41.2422C134.418 41.2422 133.033 41.0508 131.738 40.668C130.444 40.3034 129.286 39.7747 128.266 39.082C127.263 38.3893 126.415 37.5599 125.723 36.5938C125.03 35.6094 124.538 34.5065 124.246 33.2852C124.082 32.7747 123.927 32.4466 123.781 32.3008C123.654 32.1367 123.435 32.0547 123.125 32.0547C122.451 32.0547 121.931 31.8906 121.566 31.5625C121.202 31.2344 121.02 30.7604 121.02 30.1406C121.02 29.8854 121.038 29.7214 121.074 29.6484L121.129 29.1016C121.22 28.4453 121.393 27.9714 121.648 27.6797C121.922 27.388 122.341 27.2422 122.906 27.2422H123.316C124.082 27.2422 124.62 26.8867 124.93 26.1758C125.495 24.918 126.215 23.7695 127.09 22.7305C127.965 21.6914 128.949 20.8073 130.043 20.0781C131.137 19.3307 132.303 18.7565 133.543 18.3555C134.801 17.9362 136.077 17.7266 137.371 17.7266C138.72 17.7266 139.978 17.9271 141.145 18.3281C142.329 18.7109 143.359 19.2487 144.234 19.9414C145.109 20.6341 145.793 21.4453 146.285 22.375C146.796 23.3047 147.051 24.3073 147.051 25.3828C147.051 26.1302 146.905 26.8138 146.613 27.4336C146.322 28.0534 145.902 28.6003 145.355 29.0742C144.809 29.5299 144.143 29.9036 143.359 30.1953C142.594 30.487 141.719 30.6784 140.734 30.7695L131.246 31.7266C130.882 31.7266 130.581 31.8177 130.344 32C130.125 32.1823 130.016 32.4284 130.016 32.7383C130.016 33.2122 130.189 33.668 130.535 34.1055C130.9 34.543 131.374 34.9349 131.957 35.2812C132.559 35.6094 133.242 35.8737 134.008 36.0742C134.792 36.2747 135.594 36.375 136.414 36.375C137.198 36.375 138 36.3021 138.82 36.1562C139.659 35.9922 140.479 35.7643 141.281 35.4727C142.102 35.181 142.895 34.8346 143.66 34.4336C144.426 34.0143 145.146 33.5404 145.82 33.0117ZM139.723 25.957C139.996 25.9023 140.233 25.7747 140.434 25.5742C140.634 25.3555 140.734 25.0911 140.734 24.7812C140.734 24.5078 140.634 24.2526 140.434 24.0156C140.233 23.7786 139.96 23.569 139.613 23.3867C139.267 23.1862 138.866 23.0312 138.41 22.9219C137.954 22.8125 137.471 22.7578 136.961 22.7578C136.214 22.7578 135.448 22.8672 134.664 23.0859C133.88 23.3047 133.169 23.5964 132.531 23.9609C131.893 24.3073 131.374 24.6992 130.973 25.1367C130.572 25.556 130.371 25.9753 130.371 26.3945C130.371 26.8138 130.626 27.0234 131.137 27.0234C131.447 27.0234 131.948 26.987 132.641 26.9141C133.333 26.8411 134.099 26.7591 134.938 26.668C135.776 26.5586 136.624 26.4401 137.48 26.3125C138.337 26.1849 139.085 26.0664 139.723 25.957ZM158.289 15.2656C159.51 15.2656 160.768 15.4297 162.062 15.7578C163.357 16.0677 164.542 16.4779 165.617 16.9883C166.693 17.4805 167.577 18.0365 168.27 18.6562C168.962 19.276 169.309 19.8776 169.309 20.4609C169.309 20.7526 169.181 21.0807 168.926 21.4453C168.671 21.7917 168.361 22.1289 167.996 22.457C167.632 22.7669 167.23 23.0312 166.793 23.25C166.374 23.4505 166 23.5508 165.672 23.5508C165.234 23.5508 164.742 23.3685 164.195 23.0039C163.667 22.6393 163.074 22.2383 162.418 21.8008C161.78 21.3451 161.078 20.9349 160.312 20.5703C159.547 20.2057 158.717 20.0234 157.824 20.0234C157.241 20.0234 156.758 20.1693 156.375 20.4609C156.01 20.7344 155.828 21.1263 155.828 21.6367C155.828 22.0924 156.047 22.5573 156.484 23.0312C156.922 23.487 157.496 23.9609 158.207 24.4531C158.936 24.9453 159.757 25.4648 160.668 26.0117C161.579 26.5586 162.509 27.1419 163.457 27.7617C164.423 28.3815 165.362 29.056 166.273 29.7852C167.185 30.5143 167.996 31.3073 168.707 32.1641C169.436 33.0208 170.02 33.9596 170.457 34.9805C170.895 35.9831 171.113 37.0768 171.113 38.2617C171.113 39.2826 170.931 40.2122 170.566 41.0508C170.202 41.8893 169.682 42.6094 169.008 43.2109C168.333 43.8125 167.531 44.2773 166.602 44.6055C165.672 44.9336 164.651 45.0977 163.539 45.0977C162.135 45.0977 160.841 44.8789 159.656 44.4414C158.471 44.0221 157.451 43.4388 156.594 42.6914C155.737 41.944 155.062 41.0508 154.57 40.0117C154.096 38.9727 153.859 37.8333 153.859 36.5938C153.859 34.9896 154.142 33.8229 154.707 33.0938C155.29 32.3646 156.202 32 157.441 32C158.207 32 158.818 32.1458 159.273 32.4375C159.729 32.7292 159.957 33.0846 159.957 33.5039C159.957 33.7227 159.921 33.9505 159.848 34.1875C159.775 34.4062 159.693 34.6432 159.602 34.8984C159.529 35.1354 159.456 35.3906 159.383 35.6641C159.328 35.9375 159.301 36.2109 159.301 36.4844C159.301 36.9583 159.41 37.4141 159.629 37.8516C159.848 38.2891 160.139 38.6719 160.504 39C160.887 39.3464 161.324 39.6198 161.816 39.8203C162.309 40.0208 162.828 40.1211 163.375 40.1211C164.833 40.1211 165.562 39.5195 165.562 38.3164C165.562 37.3685 165.189 36.4753 164.441 35.6367C163.694 34.7799 162.755 33.9505 161.625 33.1484C160.495 32.3281 159.273 31.5078 157.961 30.6875C156.667 29.8672 155.454 29.0104 154.324 28.1172C153.194 27.224 152.255 26.276 151.508 25.2734C150.76 24.2526 150.387 23.1497 150.387 21.9648C150.387 20.9805 150.587 20.0781 150.988 19.2578C151.408 18.4375 151.973 17.7357 152.684 17.1523C153.395 16.5508 154.224 16.0859 155.172 15.7578C156.138 15.4297 157.177 15.2656 158.289 15.2656Z" fill="#376BD0"/>
</svg>
